<?xml version="1.0" encoding="utf-8"?>
<!-- Generator: Adobe Illustrator 18.0.0, SVG Export Plug-In . SVG Version: 6.00 Build 0)  -->
<!DOCTYPE svg PUBLIC "-//W3C//DTD SVG 1.0//EN" "http://www.w3.org/TR/2001/REC-SVG-20010904/DTD/svg10.dtd">
<svg version="1.0" id="Calque_2" xmlns="http://www.w3.org/2000/svg" xmlns:xlink="http://www.w3.org/1999/xlink" x="0px" y="0px"
	 viewBox="0 0 324.7 286.7" enable-background="new 0 0 324.7 286.7" xml:space="preserve">
<g>
	<polygon fill="#FFFFFF" points="277.1,59 247,131 247,247 289,247 289,59 	"/>
	<polygon fill="#FFFFFF" points="72.9,132.3 42.2,59 33,59 33,247 73,247 73,132.3 	"/>
	<path fill="#FFFFFF" d="M234.3,59h-9.7c-22,0-38.3,4.5-48.9,13.3c-8.2,6.9-13.2,16.6-15,28.9c-1.8-12.4-6.8-22.1-15-29
		C135.2,63.5,118.9,59,96.8,59H88H62.4l9.2,22h0.1l66.5,142.7l12.6-30.1l-16.4-35.1c15.1-7.9,23.8-19.9,26.3-36.1
		c2.5,16.4,11.4,28.5,26.7,36.3l-17.7,37.5l-21,50.2l0.2,0.5h21.4l72.8-155.1L257,59H234.3z"/>
</g>
</svg>
