<?xml version="1.0" encoding="utf-8"?>
<!-- Generator: Adobe Illustrator 18.0.0, SVG Export Plug-In . SVG Version: 6.00 Build 0)  -->
<!DOCTYPE svg PUBLIC "-//W3C//DTD SVG 1.0//EN" "http://www.w3.org/TR/2001/REC-SVG-20010904/DTD/svg10.dtd">
<svg version="1.0" id="Calque_1" xmlns="http://www.w3.org/2000/svg" xmlns:xlink="http://www.w3.org/1999/xlink" x="0px" y="0px"
	 viewBox="0 0 387.7 81.3" enable-background="new 0 0 387.7 81.3" xml:space="preserve">
<g>
	<path fill="#FFFFFF" d="M196.6,45.4v34.1h-5.5V1.2h18.6c9.7,0,16.9,1.8,21.5,5.4c4.6,3.6,7,9,7,16.2c0,5.3-1.4,9.7-4.2,13.3
		c-2.8,3.6-7,6.2-12.6,7.8l21.3,35.7h-6.5l-20.2-34.1H196.6z M196.6,40.7h15c6.6,0,11.7-1.5,15.4-4.4c3.6-2.9,5.5-7.3,5.5-13
		c0-6-1.8-10.3-5.4-13c-3.6-2.7-9.4-4.1-17.5-4.1h-13V40.7z"/>
	<path fill="#FFFFFF" d="M303.2,50.4c0,9.5-2.3,16.9-6.9,22.3c-4.6,5.3-11,8-19.1,8c-5.1,0-9.6-1.2-13.5-3.7s-6.9-6-8.9-10.6
		c-2.1-4.6-3.1-9.9-3.1-16c0-9.5,2.3-16.9,6.9-22.2c4.6-5.3,10.9-8,19-8c8,0,14.3,2.7,18.8,8.1C300.9,33.6,303.2,41,303.2,50.4z
		 M257.2,50.4c0,8,1.8,14.2,5.3,18.7c3.5,4.5,8.5,6.7,14.9,6.7c6.4,0,11.4-2.2,14.9-6.7c3.5-4.5,5.3-10.7,5.3-18.7
		c0-8-1.8-14.3-5.3-18.7c-3.6-4.4-8.5-6.6-15-6.6c-6.4,0-11.4,2.2-14.9,6.6C259,36.1,257.2,42.3,257.2,50.4z"/>
	<path fill="#FFFFFF" d="M318.6,5.1c0-3.4,1.1-5.1,3.4-5.1c1.1,0,2,0.4,2.6,1.3c0.6,0.9,0.9,2.2,0.9,3.8c0,1.6-0.3,2.9-0.9,3.8
		c-0.6,0.9-1.5,1.4-2.6,1.4C319.7,10.3,318.6,8.6,318.6,5.1z M324.6,79.6h-5.3V21.3h5.3V79.6z"/>
	<path fill="#FFFFFF" d="M363.6,45.4l-21,34.1H336l22-35.2c-5.5-1.1-9.7-3.4-12.7-7c-3-3.6-4.5-8.1-4.5-13.6
		c0-15,9.4-22.5,28.2-22.5h18.6v78.3h-5.5V45.4H363.6z M382.2,6.2h-13c-7.9,0-13.6,1.4-17.2,4.1c-3.6,2.7-5.3,7.1-5.3,13.2
		c0,5.7,1.8,10,5.3,12.9c3.5,2.9,8.6,4.3,15.4,4.3h14.8V6.2z"/>
</g>
<g>
	<path fill="#FFFFFF" d="M151.1,81.3c-9.2,0-16.4-2.7-21.6-8.1c-5.2-5.4-7.8-12.8-7.8-22.2c0-9.7,2.4-17.3,7.2-22.8
		c4.8-5.5,11.4-8.3,19.9-8.3c7.8,0,14,2.4,18.5,7.1c4.5,4.8,6.8,11.3,6.8,19.6v6.8h-39.5c0.2,5.8,1.7,10.2,4.7,13.3
		c2.9,3.1,7.1,4.6,12.4,4.6c3.5,0,6.8-0.3,9.8-1c3-0.7,6.3-1.8,9.7-3.3v10.2c-3.1,1.5-6.2,2.5-9.3,3.1
		C158.7,81,155.1,81.3,151.1,81.3z M148.8,29.4c-4,0-7.2,1.3-9.6,3.8c-2.4,2.5-3.9,6.2-4.3,11.1h26.9c-0.1-4.9-1.3-8.6-3.5-11.1
		C155.9,30.7,152.8,29.4,148.8,29.4z"/>
</g>
<g>
	<g>
		<polygon fill="#FFFFFF" points="93.6,2.4 84.1,2.4 57.2,59.2 48.4,79.7 48.4,79.4 57.4,79.4 88.1,15 		"/>
		<polygon fill="#FFFFFF" points="102,2.4 89,31.7 89,79.4 106,79.4 106,2.4 		"/>
	</g>
	<g>
		<polygon fill="#FFFFFF" points="16.6,32.8 3.8,2.4 0,2.4 0,79.4 17,79.4 17,32.2 		"/>
		<polygon fill="#FFFFFF" points="23,2.4 12.2,2.4 16.1,10.4 16.1,10.4 43.9,70.3 49.2,58.2 		"/>
	</g>
</g>
</svg>
